<svg xmlns="http://www.w3.org/2000/svg" xmlns:xlink="http://www.w3.org/1999/xlink" width="250" zoomAndPan="magnify" viewBox="0 0 187.5 30.000001" height="40" preserveAspectRatio="xMidYMid meet" version="1.0"><defs><g/></defs><g fill="#000000" fill-opacity="1"><g transform="translate(6.377265, 22.273937)"><g><path d="M 8.785156 -2.632812 L 4.0625 -2.632812 L 4.0625 -5.28125 L 8.589844 -5.28125 L 8.589844 -7.914062 L 4.0625 -7.914062 L 4.0625 -10.527344 L 8.785156 -10.527344 L 8.785156 -13.15625 L 1.160156 -13.15625 L 1.160156 0 L 8.785156 0 Z M 8.785156 -2.632812 "/></g></g></g><g fill="#000000" fill-opacity="1"><g transform="translate(16.32173, 22.273937)"><g><path d="M 6.753906 -10.527344 L 10.507812 -10.527344 L 10.507812 -13.15625 L 0.0976562 -13.15625 L 0.0976562 -10.527344 L 3.851562 -10.527344 L 3.851562 0 L 6.753906 0 Z M 6.753906 -10.527344 "/></g></g></g><g fill="#000000" fill-opacity="1"><g transform="translate(26.924002, 22.273937)"><g><path d="M 4.0625 -4.703125 L 4.082031 -4.703125 L 7.21875 0 L 10.894531 0 L 7.121094 -4.835938 C 8.785156 -5.242188 10.121094 -6.714844 10.121094 -8.941406 C 10.121094 -11.4375 8.222656 -13.15625 6.09375 -13.15625 L 1.160156 -13.15625 L 1.160156 0 L 4.0625 0 Z M 5.613281 -10.875 C 6.464844 -10.875 7.351562 -10.140625 7.351562 -8.941406 C 7.351562 -7.683594 6.464844 -6.984375 5.613281 -6.984375 L 4.0625 -6.984375 L 4.0625 -10.875 Z M 5.613281 -10.875 "/></g></g></g><g fill="#000000" fill-opacity="1"><g transform="translate(37.584318, 22.273937)"><g/></g></g><g fill="#000000" fill-opacity="1"><g transform="translate(42.421115, 22.273937)"><g><path d="M 6.289062 -3.484375 L 6.289062 -5.089844 L 0.289062 -5.089844 L 0.289062 -3.484375 Z M 6.289062 -3.484375 "/></g></g></g><g fill="#000000" fill-opacity="1"><g transform="translate(53.835965, 22.273937)"><g><path d="M 1.734375 0 L 1.734375 -4.640625 L 1.078125 -4.25 L 0.015625 -6.109375 L 1.734375 -7.15625 L 1.734375 -13.8125 L 4.65625 -13.8125 L 4.65625 -8.9375 L 6.015625 -9.765625 L 7.125 -7.90625 L 4.65625 -6.421875 L 4.65625 -2.421875 L 10.265625 -2.421875 L 10.265625 0 Z M 1.734375 0 "/></g></g></g><g fill="#000000" fill-opacity="1"><g transform="translate(64.76714, 22.273937)"><g><path d="M 8.320312 -5.03125 L 4.992188 -5.03125 L 6.65625 -9.714844 Z M 13.234375 0 L 7.894531 -13.15625 L 5.4375 -13.15625 L 0.0976562 0 L 3.210938 0 L 4.160156 -2.652344 L 9.171875 -2.652344 L 10.121094 0 Z M 13.234375 0 "/></g></g></g><g fill="#000000" fill-opacity="1"><g transform="translate(78.097366, 22.273937)"><g><path d="M 6.753906 -10.527344 L 10.507812 -10.527344 L 10.507812 -13.15625 L 0.0976562 -13.15625 L 0.0976562 -10.527344 L 3.851562 -10.527344 L 3.851562 0 L 6.753906 0 Z M 6.753906 -10.527344 "/></g></g></g><g fill="#000000" fill-opacity="1"><g transform="translate(88.699638, 22.273937)"><g><path d="M 17.570312 -13.15625 L 14.378906 -13.15625 L 12.828125 -4.082031 L 10.253906 -13.15625 L 7.410156 -13.15625 L 4.835938 -4.082031 L 3.289062 -13.15625 L 0.0976562 -13.15625 L 2.652344 0 L 6.09375 0 L 8.84375 -9.230469 L 11.570312 0 L 15.015625 0 Z M 17.570312 -13.15625 "/></g></g></g><g fill="#000000" fill-opacity="1"><g transform="translate(106.363638, 22.273937)"><g><path d="M 5.011719 0 L 7.914062 0 L 7.914062 -6.289062 L 12.769531 -13.15625 L 9.308594 -13.15625 L 6.464844 -8.609375 L 3.617188 -13.15625 L 0.15625 -13.15625 L 5.011719 -6.289062 Z M 5.011719 0 "/></g></g></g><g fill="#000000" fill-opacity="1"><g transform="translate(119.287569, 22.273937)"><g/></g></g><g fill="#000000" fill-opacity="1"><g transform="translate(124.124366, 22.273937)"><g><path d="M 6.753906 -10.527344 L 10.507812 -10.527344 L 10.507812 -13.15625 L 0.0976562 -13.15625 L 0.0976562 -10.527344 L 3.851562 -10.527344 L 3.851562 0 L 6.753906 0 Z M 6.753906 -10.527344 "/></g></g></g><g fill="#000000" fill-opacity="1"><g transform="translate(134.726638, 22.273937)"><g><path d="M 8.785156 -2.632812 L 4.0625 -2.632812 L 4.0625 -5.28125 L 8.589844 -5.28125 L 8.589844 -7.914062 L 4.0625 -7.914062 L 4.0625 -10.527344 L 8.785156 -10.527344 L 8.785156 -13.15625 L 1.160156 -13.15625 L 1.160156 0 L 8.785156 0 Z M 8.785156 -2.632812 "/></g></g></g><g fill="#000000" fill-opacity="1"><g transform="translate(144.671103, 22.273937)"><g><path d="M 4.0625 -5.882812 L 8.222656 0 L 12.132812 0 L 6.886719 -6.578125 L 11.9375 -13.15625 L 8.222656 -13.15625 L 4.0625 -7.277344 L 4.0625 -13.15625 L 1.160156 -13.15625 L 1.160156 0 L 4.0625 0 Z M 4.0625 -5.882812 "/></g></g></g><g fill="#000000" fill-opacity="1"><g transform="translate(156.608324, 22.273937)"><g><path d="M 6.269531 -2.050781 C 4.835938 -2.050781 3.597656 -2.765625 3.523438 -4.335938 L 0.582031 -4.335938 C 0.601562 -1.121094 3.25 0.308594 6.152344 0.308594 C 8.84375 0.308594 11.609375 -0.832031 11.609375 -3.929688 C 11.609375 -8.941406 4.003906 -7.257812 4.003906 -9.597656 C 4.003906 -10.585938 5.148438 -10.972656 5.960938 -10.972656 C 7.410156 -10.972656 8.203125 -10.527344 8.359375 -9.152344 L 11.164062 -9.152344 C 11.066406 -12.152344 8.628906 -13.351562 5.921875 -13.351562 C 3.523438 -13.351562 1.007812 -12.074219 1.007812 -9.367188 C 1.007812 -4.507812 8.609375 -6.152344 8.609375 -3.597656 C 8.609375 -2.417969 7.179688 -2.050781 6.269531 -2.050781 Z M 6.269531 -2.050781 "/></g></g></g><g fill="#000000" fill-opacity="1"><g transform="translate(168.797069, 22.273937)"><g><path d="M 6.753906 -10.527344 L 10.507812 -10.527344 L 10.507812 -13.15625 L 0.0976562 -13.15625 L 0.0976562 -10.527344 L 3.851562 -10.527344 L 3.851562 0 L 6.753906 0 Z M 6.753906 -10.527344 "/></g></g></g></svg>